<?xml version="1.0"?>
<svg xmlns="http://www.w3.org/2000/svg" id="Capa_1" enable-background="new 0 0 494 494" height="512px" viewBox="0 0 494 494" width="512px"><g><g><path d="m366.267 167.167c0-45.629-35.176-83.191-79.833-87.007v-17.26h16.45c4.143 0 7.5-3.358 7.5-7.5s-3.357-7.5-7.5-7.5h-.484v-24.4c0-12.958-10.542-23.5-23.5-23.5h-63.8c-12.958 0-23.5 10.542-23.5 23.5v24.4h-.483c-4.143 0-7.5 3.358-7.5 7.5s3.357 7.5 7.5 7.5h16.45v17.259c-44.657 3.817-79.833 41.378-79.833 87.007v7.983c0 2.925.83 5.653 2.246 7.989-1.415 2.338-2.246 5.068-2.246 7.994v95.768c0 4.093 1.606 7.81 4.207 10.583-2.648 3.799-4.207 8.412-4.207 13.384v15.967c0 6.161 2.387 11.775 6.284 15.966-3.897 4.191-6.284 9.806-6.284 15.967v15.967c0 6.161 2.387 11.775 6.284 15.967-3.897 4.191-6.284 9.806-6.284 15.966v15.967c0 6.161 2.387 11.775 6.284 15.967-3.897 4.191-6.284 9.806-6.284 15.966 0 21.744 17.689 39.434 39.434 39.434h159.666c21.744 0 39.434-17.69 39.434-39.434 0-6.161-2.387-11.775-6.284-15.966 3.898-4.191 6.284-9.806 6.284-15.967v-15.967c0-6.161-2.387-11.775-6.284-15.966 3.898-4.191 6.284-9.806 6.284-15.967v-15.967c0-6.161-2.387-11.775-6.284-15.967 3.898-4.191 6.284-9.805 6.284-15.966v-15.967c0-4.972-1.559-9.584-4.207-13.384 2.601-2.773 4.207-6.49 4.207-10.583v-95.767c0-2.927-.83-5.656-2.246-7.994 1.415-2.336 2.246-5.064 2.246-7.989v-7.983zm-159.667-143.667c0-4.687 3.814-8.5 8.5-8.5h63.8c4.687 0 8.5 3.813 8.5 8.5v24.4h-80.8zm64.834 39.4v16.934h-48.867v-16.934zm79.833 263.934c0 4.668-3.798 8.466-8.467 8.466-4.143 0-7.5 3.358-7.5 7.5s3.357 7.5 7.5 7.5c4.669 0 8.467 3.798 8.467 8.467v15.967c0 4.668-3.798 8.467-8.467 8.467h-159.666c-4.143 0-7.5 3.358-7.5 7.5s3.357 7.5 7.5 7.5h159.666c4.669 0 8.467 3.798 8.467 8.466v15.967c0 4.669-3.798 8.467-8.467 8.467-4.143 0-7.5 3.358-7.5 7.5s3.357 7.5 7.5 7.5c4.669 0 8.467 3.798 8.467 8.466 0 13.473-10.961 24.434-24.434 24.434h-159.666c-13.473 0-24.434-10.961-24.434-24.434 0-4.668 3.798-8.466 8.467-8.466h159.666c4.143 0 7.5-3.358 7.5-7.5s-3.357-7.5-7.5-7.5h-159.666c-4.669 0-8.467-3.798-8.467-8.467v-15.967c0-4.669 3.798-8.466 8.467-8.466 4.143 0 7.5-3.358 7.5-7.5s-3.357-7.5-7.5-7.5c-4.669 0-8.467-3.798-8.467-8.467v-15.967c0-4.669 3.798-8.467 8.467-8.467h159.666c4.143 0 7.5-3.358 7.5-7.5s-3.357-7.5-7.5-7.5h-159.666c-4.669 0-8.467-3.798-8.467-8.466v-15.967c0-4.669 3.798-8.467 8.467-8.467h46.081c4.143 0 7.5-3.358 7.5-7.5s-3.357-7.5-7.5-7.5h-54.048c-.275 0-.5-.224-.5-.5v-16.433h24.434c4.143 0 7.5-3.358 7.5-7.5s-3.357-7.5-7.5-7.5h-24.434v-64.333c0-.276.225-.5.5-.5h152.634c4.143 0 7.5-3.358 7.5-7.5s-3.357-7.5-7.5-7.5h-152.634c-.003 0-.005 0-.008 0s-.005 0-.008 0c-.267 0-.483-.217-.483-.483v-7.983c0-39.885 32.448-72.333 72.333-72.333h63.867c39.885 0 72.333 32.448 72.333 72.333v7.983c0 .267-.217.483-.483.483-.003 0-.005 0-.008 0s-.005 0-.008 0h-24.899c-4.143 0-7.5 3.358-7.5 7.5s3.357 7.5 7.5 7.5h24.899c.275 0 .5.224.5.5v64.333h-24.434c-4.143 0-7.5 3.358-7.5 7.5s3.357 7.5 7.5 7.5h24.434v16.433c0 .276-.225.5-.5.5h-123.487c-4.143 0-7.5 3.358-7.5 7.5s3.357 7.5 7.5 7.5h115.519c4.669 0 8.467 3.798 8.467 8.467z" data-original="#000000" class="active-path" fill="#000000"/><path d="m270.934 254.5c8.547 0 15.5-6.953 15.5-15.5v-15.933c0-8.547-6.953-15.5-15.5-15.5h-47.867c-8.547 0-15.5 6.953-15.5 15.5v15.933c0 8.547 6.953 15.5 15.5 15.5zm-48.368-15.5v-15.933c0-.276.225-.5.5-.5h47.867c.275 0 .5.224.5.5v15.933c0 .276-.225.5-.5.5h-47.867c-.275 0-.5-.224-.5-.5z" data-original="#000000" class="active-path" fill="#000000"/></g></g> </svg>
