<?xml version="1.0"?>
<svg xmlns="http://www.w3.org/2000/svg" viewBox="0 0 64 64" width="512" height="512"><g id="Outlines"><g><path d="M48.97,42.757l-1.594-6.375a1,1,0,0,0-1.212-.727.971.971,0,0,0-.359.171.986.986,0,0,0-.23-.258,1,1,0,0,0-1.4.2L42.2,38.4a1,1,0,1,0,1.6,1.2l1.739-2.319,1.439,5.752-1.662,9.139-3.691-2.953a1,1,0,0,0-1.25,1.562l4.751,3.8L46.674,60H43.083L31.165,58.014a.955.955,0,0,0-.3-.005l-14.851,1.98-5.852-.975a1,1,0,0,0-.408.016L7,59.719v-6.6l1.9-7.612,2.8-2.8a1,1,0,0,0-1.414-1.414L8.581,43.005,7.033,36.038l1.739-5.8a1,1,0,1,0-1.916-.575L5.042,35.712a1,1,0,0,0-.018.5l1.949,8.769L5.03,52.757A1,1,0,0,0,5,53v8a1,1,0,0,0,1.243.97l3.8-.949,5.794.965a1.055,1.055,0,0,0,.3.005l14.851-1.98,11.852,1.975A.919.919,0,0,0,43,62h5a1,1,0,0,0,.961-1.275L47.025,53.95l1.959-10.771A1.018,1.018,0,0,0,48.97,42.757Z"/><path d="M23.661,51.989h0C23.775,52,24,52,24,52a4.97,4.97,0,0,0,3.536-1.464A5.023,5.023,0,0,0,29,46.881a10.4,10.4,0,0,1,4.3-8.619A8.9,8.9,0,0,0,37,31a9.013,9.013,0,0,0-9.01-9h-.159A9.254,9.254,0,0,0,19,31.4V46.726A5.22,5.22,0,0,0,23.661,51.989ZM21,31.4A7.244,7.244,0,0,1,27.858,24H28a7.008,7.008,0,0,1,7,7,6.922,6.922,0,0,1-2.875,5.646A12.387,12.387,0,0,0,27,46.906a3.013,3.013,0,0,1-.877,2.216A2.975,2.975,0,0,1,24.015,50c-.009,0-.151,0-.225-.007A3.194,3.194,0,0,1,21,46.726Z"/><path d="M28,34a3,3,0,1,0-3-3A3,3,0,0,0,28,34Zm0-4a1,1,0,1,1-1,1A1,1,0,0,1,28,30Z"/><path d="M58.588,12.475a1,1,0,1,0-1.629,1.16,11.026,11.026,0,1,1-2.594-2.594,1,1,0,1,0,1.16-1.629A12.986,12.986,0,0,0,35,20c0,.02,0,.039,0,.059A12.95,12.95,0,0,0,27.757,18a12.724,12.724,0,0,0-8.712,3.734l-1.973-1.644.823-1.645a1,1,0,1,0-1.79-.894l-.611,1.223L13.64,17.232a1,1,0,0,0-1.28,1.536l5.368,4.473A13.566,13.566,0,0,0,15,31.4V33a1,1,0,0,0,2,0V31.4A11.261,11.261,0,0,1,27.793,20a10.9,10.9,0,0,1,7.522,2.808,12.984,12.984,0,0,0,3.524,6.4,10.832,10.832,0,0,1-4.357,10.664A8.4,8.4,0,0,0,31,46.827L31,47a7,7,0,0,1-7.468,6.985A7.159,7.159,0,0,1,17,46.726V37a1,1,0,0,0-2,0v9.65l-3.781,4.725c-.006.008-.007.018-.013.026s-.027.028-.038.044l-2,3a1,1,0,1,0,1.664,1.11l1.216-1.824L14.2,56.6a1,1,0,1,0,1.6-1.2l-2.535-3.38,2.111-2.64a9.054,9.054,0,0,0,8.027,6.6c.2.013.4.019.6.019a8.915,8.915,0,0,0,6.147-2.433A9.032,9.032,0,0,0,33,47l0-.212a6.231,6.231,0,0,1,.443-2.449L36.553,45.9a1,1,0,1,0,.894-1.79l-2.983-1.491a6.733,6.733,0,0,1,1.2-1.121A13.034,13.034,0,0,0,41,31c0-.021,0-.044,0-.065a12.984,12.984,0,0,0,17.591-18.46Z"/><path d="M54.894,14.527a1,1,0,1,0-1.932-.518l-.624,2.332-1.74,1L49,16.422V14.414l1.707-1.707a1,1,0,0,0-1.414-1.414L48,12.586l-1.293-1.293a1,1,0,0,0-1.414,1.414L47,14.414v2.008l-1.6.923-1.74-1-.624-2.332a1,1,0,0,0-1.932.518l.473,1.766-1.766.473a1,1,0,0,0,.258,1.966,1.015,1.015,0,0,0,.26-.034l2.331-.625,1.74,1v1.844l-1.74,1L40.331,21.3a1,1,0,1,0-.518,1.932l1.766.473-.473,1.766a1,1,0,0,0,.707,1.225,1.013,1.013,0,0,0,.259.034,1,1,0,0,0,.966-.741l.624-2.332,1.74-1,1.6.923v2.008l-1.707,1.707a1,1,0,0,0,1.414,1.414L48,27.414l1.293,1.293a1,1,0,0,0,1.414-1.414L49,25.586V23.578l1.6-.923,1.74,1,.624,2.332a1,1,0,0,0,.966.741,1.013,1.013,0,0,0,.259-.034,1,1,0,0,0,.707-1.225l-.473-1.766,1.766-.473a1,1,0,1,0-.518-1.932l-2.331.625-1.74-1V19.078l1.74-1,2.331.625a1.015,1.015,0,0,0,.26.034,1,1,0,0,0,.258-1.966l-1.766-.473Zm-5.3,6.4-1.6.922-1.6-.922V19.077l1.6-.922,1.6.922Z"/><path d="M5,14a.969.969,0,0,0,.01.142l1,7a1.042,1.042,0,0,0,.061.23l2,5a1,1,0,0,0,.374.46l3,2a1,1,0,1,0,1.11-1.664L9.813,25.34l-1.84-4.6L7.153,15H33.619a1,1,0,0,0,0-2H7V11H35.372a1,1,0,0,0,0-2H6.754L5.385,4.208l5.473.782A.934.934,0,0,0,11.1,5l9.879-.988L34.858,5.99a1.013,1.013,0,0,0,.417-.029L42.14,4H50a1,1,0,0,0,0-2H42a.983.983,0,0,0-.275.039L34.93,3.98,21.142,2.01a1.029,1.029,0,0,0-.242,0l-9.879.988L4.142,2.01a1,1,0,0,0-1.1,1.265L5,10.14Z"/></g></g></svg>
