<svg id="Capa_1" enable-background="new 0 0 512 512" height="512" viewBox="0 0 512 512" width="512" xmlns="http://www.w3.org/2000/svg"><g><path d="m406.787 339.483v-61.469c0-26.743-7.601-52.786-21.982-75.298-2.23-3.5-6.871-4.521-10.361-2.29-3.49 2.23-4.511 6.871-2.28 10.361 3.548 5.558 6.615 11.362 9.222 17.347-2.222 5.115-7.813 17.071-17.682 32.839-17.267-9.373-33.38-19.226-48.095-29.387 11.236-16.452 20.786-33.807 28.543-51.918 3.148 2.51 6.2 5.178 9.13 8.016 2.98 2.87 7.731 2.79 10.611-.18 2.88-2.98 2.8-7.731-.18-10.611-5.701-5.521-11.801-10.501-18.212-14.922 5.621-32.674 20.592-63.997 44.565-93.25 2.05-2.5 2.27-6.041.53-8.771-1.74-2.74-5.031-4.05-8.171-3.25-23.283 5.891-44.275 17.152-62.717 33.594 11.751-26.893 27.953-52.976 48.505-78.029 2.05-2.51 2.26-6.051.53-8.781-1.74-2.73-5.031-4.04-8.171-3.25-20.182 5.101-39.335 12.971-56.916 23.383-3.57 2.11-4.741 6.711-2.63 10.271 2.11 3.57 6.711 4.751 10.271 2.63 9.721-5.751 19.972-10.671 30.623-14.712-22.993 31.834-39.504 65.187-49.355 99.691-.595 1.191-3.774 14.515-4.411 17.522-7.241-1.15-14.612-1.73-22.062-1.73h-20.182c-9.751 0-19.272 1-28.463 2.89 19.662-36.324 42.875-65.377 69.248-86.61 3.23-2.6 3.74-7.321 1.14-10.541-2.6-3.23-7.321-3.74-10.541-1.14-7.331 5.901-14.432 12.371-21.272 19.382-29.913-30.513-65.057-51.036-104.592-61.037-3.13-.8-6.431.51-8.171 3.25-1.73 2.73-1.52 6.271.53 8.771 1.36 1.66 2.68 3.31 4.01 4.961l.11.13c6.981 8.821 13.922 16.932 20.642 24.783 19.812 23.153 37.034 43.275 46.975 71.448-.23.37-.46.75-.69 1.13-17.622-29.893-47.525-50.316-85.6-58.087-3.11-.64-6.281.76-7.921 3.48-1.64 2.71-1.39 6.171.62 8.621 23.963 29.223 38.914 60.517 44.555 93.18-36.974 25.383-61.277 67.968-61.277 116.113v61.451.044 31.765c0 77.6 63.117 140.727 140.696 140.727h20.182c77.579 0 140.696-63.127 140.696-140.726v-31.789s0-.001 0-.002zm-18.551-90.965c2.113 8.721 3.303 17.681 3.501 26.753-4.972-2.38-9.865-4.803-14.681-7.264 4.604-7.401 8.302-13.989 11.18-19.489zm-19.424 32.11c7.502 3.857 15.168 7.608 22.973 11.24v45.785c-1.217 2.103-3.781 6.318-7.871 12.065-19.521-6.292-37.323-13.675-53.534-21.838 3.613-3.784 7.155-7.628 10.603-11.546 11.156-12.672 20.348-24.783 27.829-35.706zm-112.818-3.732c-15.157-13.845-27.747-28.032-38.133-41.686 4.415-3.225 8.704-6.471 12.831-9.739 9.425-7.462 18.084-15.034 25.922-22.637 7.693 7.561 16.169 15.079 25.376 22.476 3.997 3.211 8.138 6.401 12.404 9.566-10.437 13.757-23.115 28.063-38.4 42.02zm49.312 54.693c-13.75 12.903-30.105 26.318-49.312 39.252-19.213-12.942-35.576-26.359-49.327-39.269 17.623-10.123 34.095-21.566 49.334-34.352 15.236 12.785 31.686 24.248 49.305 34.369zm-85.113-69.359c7.644 8.697 15.718 16.945 24.194 24.762-14.24 11.794-30.489 23.165-48.986 33.547-4.556-4.654-8.785-9.204-12.657-13.585-10.404-11.774-19.046-23.094-26.144-33.369 17.371-9.414 33.737-19.329 48.754-29.557 4.702 6.21 9.64 12.286 14.839 18.202zm-27.371 76.918c15.233 14.71 31.743 28.281 49.377 40.574-16.817 10.363-35.586 20.251-56.448 29.118-7.467-5.836-14.062-11.489-19.818-16.781-11.801-10.849-21.093-21.06-28.182-29.721 19.377-6.5 37.752-14.231 55.071-23.19zm63.181 49.774c17.749 11.341 36.56 21.439 56.301 30.259-15.636 11.021-34.316 22.316-56.304 32.805-21.987-10.489-40.667-21.784-56.302-32.805 19.743-8.819 38.554-18.917 56.305-30.259zm13.769-9.197c17.639-12.298 34.166-25.86 49.404-40.575 17.318 8.96 35.695 16.688 55.074 23.188-7.089 8.661-16.381 18.871-28.182 29.721-5.758 5.294-12.355 10.948-19.825 16.787-20.873-8.866-39.652-18.753-56.471-29.121zm85.661-106.189c-7.104 10.288-15.758 21.625-26.178 33.417-3.876 4.387-8.11 8.942-12.673 13.601-18.5-10.383-34.735-21.76-48.975-33.557 8.478-7.818 16.554-16.069 24.199-24.767 5.269-5.995 10.269-12.153 15.026-18.45 14.963 10.332 31.281 20.313 48.601 29.756zm-48.847-146.529c16.192-21.852 35.304-37.884 57.046-47.855-15.902 23.733-26.573 48.675-31.834 74.498-9.211-4.911-18.922-8.761-28.973-11.491 1.105-5.095 2.531-10.093 3.761-15.152zm-12.313 28.493c1.923.445 3.837.923 5.732 1.46.01-.01.02-.01.02.01 1.3.35 2.6.74 3.88 1.15 9.694 3.075 18.986 7.333 27.691 12.702-5.552 13.304-14.565 31.635-28.417 51.864-13.469-10.008-25.569-20.25-36.088-30.563 11.407-12.326 20.561-24.642 27.182-36.623zm-48.364-3.21h20.182c4.148 0 8.267.227 12.351.63-5.681 9.368-12.987 18.883-21.758 28.414-8.679-9.554-15.945-19.118-21.638-28.562 3.583-.308 7.203-.482 10.863-.482zm-65.968-119.914c-2.82-3.3-5.681-6.641-8.561-10.061 27.533 10.711 52.466 27.433 74.418 49.956-7.011 8.011-13.772 16.682-20.212 25.933-11.201-25.583-28.002-45.226-45.645-65.828zm28.414 125.644c3.526-1.106 7.126-2.041 10.777-2.837 6.648 12.094 15.767 24.494 27.075 36.873-10.777 10.428-23.237 20.814-37.141 30.984-14.003-20.387-23.094-38.871-28.677-52.255 2.646-1.625 5.343-3.175 8.114-4.605 6.321-3.26 12.951-6.001 19.842-8.161-.03.05-.05.11-.07.16.03-.049.05-.109.08-.159zm-61.217-80.679c26.643 10.121 47.065 28.253 58.817 52.526-2.85 5.151-5.641 10.481-8.361 15.972-6.001 2.2-11.811 4.801-17.392 7.761-5.411-26.463-16.482-51.996-33.064-76.259zm20.673 102.239c7.806 18.24 17.433 35.713 28.766 52.271-14.762 10.052-30.923 19.833-48.247 29.174-9.942-15.879-15.547-27.893-17.747-32.967 8.286-19.067 21.159-35.695 37.228-48.478zm-44.07 68.894c2.884 5.514 6.594 12.125 11.217 19.555-4.823 2.453-9.722 4.872-14.703 7.25.198-9.211 1.402-18.178 3.486-26.805zm19.462 32.176c7.479 10.918 16.666 23.021 27.814 35.686 3.446 3.915 6.986 7.757 10.596 11.539-16.211 8.163-34.007 15.551-53.528 21.845-4.089-5.747-6.653-9.961-7.871-12.065v-45.784c7.811-3.633 15.482-7.378 22.989-11.221zm-22.988 90.624v-1.233c0-1.318.861-2.491 2.125-2.863l.022-.006c7.755 9.914 18.513 22.162 32.811 35.372 4.391 4.057 9.266 8.321 14.604 12.708-11.523 4.378-23.62 8.444-36.342 12.102-8.453-16.893-13.22-35.938-13.22-56.08zm20.979 69.463c14.514-4.291 28.637-9.211 42.354-14.716 15.128 11.238 33.284 22.909 54.712 33.925-17.037 7.182-35.815 13.796-56.428 19.445-16.264-9.683-30.175-22.926-40.638-38.654zm104.715 56.261c-15.414 0-30.182-2.801-43.838-7.902 19.682-6.135 37.637-13.106 53.929-20.551 16.293 7.445 34.247 14.416 53.929 20.551-13.656 5.101-28.425 7.902-43.838 7.902zm84.259-17.607c-20.613-5.65-39.391-12.263-56.428-19.445 21.428-11.017 39.584-22.688 54.712-33.926 13.716 5.505 27.84 10.426 42.353 14.717-10.462 15.728-24.373 28.971-40.637 38.654zm61.617-108.117c0 20.142-4.767 39.187-13.22 56.08-12.722-3.658-24.82-7.723-36.346-12.099 5.34-4.388 10.215-8.653 14.608-12.711 14.297-13.21 25.056-25.458 32.811-35.372.007.002.014.004.022.006 1.265.372 2.125 1.545 2.125 2.863z"/><g><path d="m256.113 246.905h-.113c-4.143 0-7.501-3.358-7.501-7.501s3.358-7.501 7.501-7.501h.113c4.143 0 7.501 3.358 7.501 7.501s-3.358 7.501-7.501 7.501z"/></g><g><path d="m196.219 289.113h-.142c-4.143 0-7.501-3.358-7.501-7.501s3.358-7.501 7.501-7.501h.142c4.143 0 7.501 3.358 7.501 7.501s-3.358 7.501-7.501 7.501z"/></g><g><path d="m137.997 320.067h-.142c-4.143 0-7.501-3.358-7.501-7.501s3.358-7.501 7.501-7.501h.142c4.143 0 7.501 3.358 7.501 7.501s-3.357 7.501-7.501 7.501z"/></g><g><path d="m156.053 228.991h-.113c-4.143 0-7.501-3.358-7.501-7.501s3.358-7.501 7.501-7.501h.113c4.143 0 7.501 3.358 7.501 7.501 0 4.142-3.358 7.501-7.501 7.501z"/></g><g><path d="m255.093 342.348h-.113c-4.143 0-7.501-3.358-7.501-7.501s3.358-7.501 7.501-7.501h.113c4.143 0 7.501 3.358 7.501 7.501 0 4.142-3.358 7.501-7.501 7.501z"/></g><g><path d="m186.724 379.849h-.113c-4.143 0-7.501-3.358-7.501-7.501s3.358-7.501 7.501-7.501h.113c4.143 0 7.501 3.358 7.501 7.501s-3.358 7.501-7.501 7.501z"/></g><g><path d="m180.997 454.571h-.113c-4.143 0-7.501-3.358-7.501-7.501s3.358-7.501 7.501-7.501h.113c4.143 0 7.501 3.358 7.501 7.501 0 4.142-3.357 7.501-7.501 7.501z"/></g><g><path d="m255.49 426.933h-.143c-4.143 0-7.501-3.358-7.501-7.501s3.358-7.501 7.501-7.501h.143c4.143 0 7.501 3.358 7.501 7.501 0 4.142-3.358 7.501-7.501 7.501z"/></g><g><path d="m312.833 289.113h-.113c-4.143 0-7.501-3.358-7.501-7.501s3.358-7.501 7.501-7.501h.113c4.143 0 7.501 3.358 7.501 7.501s-3.358 7.501-7.501 7.501z"/></g><g><path d="m371.055 320.067h-.113c-4.143 0-7.501-3.358-7.501-7.501s3.358-7.501 7.501-7.501h.113c4.143 0 7.501 3.358 7.501 7.501s-3.358 7.501-7.501 7.501z"/></g><g><path d="m352.998 228.991h-.113c-4.143 0-7.501-3.358-7.501-7.501s3.358-7.501 7.501-7.501h.113c4.143 0 7.501 3.358 7.501 7.501 0 4.142-3.358 7.501-7.501 7.501z"/></g><g><path d="m322.329 379.849h-.113c-4.143 0-7.501-3.358-7.501-7.501s3.358-7.501 7.501-7.501h.113c4.143 0 7.501 3.358 7.501 7.501s-3.358 7.501-7.501 7.501z"/></g><g><path d="m328.054 454.571h-.113c-4.143 0-7.501-3.358-7.501-7.501s3.358-7.501 7.501-7.501h.113c4.143 0 7.501 3.358 7.501 7.501 0 4.142-3.358 7.501-7.501 7.501z"/></g><g><path d="m212.773 193.784h-.114c-4.143 0-7.501-3.358-7.501-7.501s3.358-7.501 7.501-7.501h.114c4.143 0 7.501 3.358 7.501 7.501s-3.357 7.501-7.501 7.501z"/></g><g><path d="m299.454 193.784h-.113c-4.143 0-7.501-3.358-7.501-7.501s3.358-7.501 7.501-7.501h.113c4.143 0 7.501 3.358 7.501 7.501s-3.358 7.501-7.501 7.501z"/></g></g></svg>